<?xml version="1.0" encoding="UTF-8" standalone="no"?>
<svg xmlns:xlink="http://www.w3.org/1999/xlink" height="960.0px" width="1558.3px" xmlns="http://www.w3.org/2000/svg">
  <g transform="matrix(2.0, 0.0, 0.0, 2.0, 28.0, 0.0)">
    <path d="M765.15 480.0 L0.0 480.0 0.0 0.0 765.15 0.0 765.15 480.0" fill="url(#gradient0)" fill-rule="evenodd" stroke="none"/>
    <path d="M-14.0 171.3 Q-0.5 181.75 13.8 191.1 46.15 212.2 77.45 234.0 95.85 246.7 115.25 257.35 125.1 262.8 134.55 268.65 149.75 278.1 165.75 286.4 188.6 298.2 212.8 307.25 L224.6 311.5 255.25 322.6 Q278.4 331.35 302.1 338.75 317.9 343.75 334.05 346.15 382.95 353.4 431.65 343.65 437.55 342.4 443.3 340.65 476.65 330.45 508.95 317.05 539.35 304.45 566.15 284.1 568.45 282.25 570.85 280.85 586.2 271.65 599.7 260.6 L634.4 231.3 Q643.35 223.5 649.75 213.8 L650.35 212.9 651.85 211.9 654.05 209.95 Q655.85 207.95 656.95 205.5 L657.25 204.65 682.6 178.45 Q690.55 170.25 699.2 163.0 L719.25 146.4 720.3 145.65 Q722.7 147.05 725.4 147.3 L730.95 148.0 731.4 146.85 728.9 153.8 Q724.3 166.95 717.6 178.5 712.65 195.45 703.8 210.55 684.6 243.3 657.05 269.25 L636.55 289.1 Q627.05 298.5 615.7 305.75 591.85 320.95 569.25 338.15 547.8 354.5 521.6 362.9 507.3 367.45 493.55 373.25 430.75 399.65 361.3 391.85 L327.05 388.35 Q291.3 385.1 256.25 376.35 246.75 374.0 237.2 372.15 205.5 365.95 185.25 339.95 180.75 334.05 175.85 328.7 172.5 324.9 169.55 320.6 L145.2 284.7 Q142.7 281.1 140.55 277.45 L138.45 277.35 Q127.5 285.35 114.35 277.55 110.3 275.1 105.8 273.25 71.85 259.5 40.35 241.9 L36.35 239.65 Q15.1 227.75 -3.35 212.65 -9.15 207.9 -14.0 202.1 L-14.0 171.3 M743.0 117.7 Q723.75 111.05 703.7 106.3 L694.6 103.9 Q660.7 94.0 626.45 84.65 L558.2 66.25 Q524.0 57.05 488.95 52.75 454.9 48.45 420.6 46.9 L410.35 46.6 Q311.8 45.6 213.15 45.6 L208.0 46.05 159.4 49.15 Q146.4 50.05 133.8 53.4 L123.7 56.15 Q104.6 61.4 85.25 65.0 64.05 68.95 42.5 70.7 L17.2 73.3 Q1.1 75.4 -14.0 80.7 L-14.0 78.45 Q355.95 -20.2 751.15 83.5 746.2 107.25 743.0 117.7" fill="#f1f5f8" fill-rule="evenodd" stroke="none"/>
    <path d="M731.4 146.85 L730.95 148.0 725.4 147.3 Q722.7 147.05 720.3 145.65 L719.25 146.4 699.2 163.0 Q690.55 170.25 682.6 178.45 L657.25 204.65 656.95 205.5 Q655.85 207.95 654.05 209.95 L651.85 211.9 650.35 212.9 649.75 213.8 Q643.35 223.5 634.4 231.3 L599.7 260.6 Q586.2 271.65 570.85 280.85 568.45 282.25 566.15 284.1 539.35 304.45 508.95 317.05 476.65 330.45 443.3 340.65 437.55 342.4 431.65 343.65 382.95 353.4 334.05 346.15 317.9 343.75 302.1 338.75 278.4 331.35 255.25 322.6 L224.6 311.5 212.8 307.25 Q188.6 298.2 165.75 286.4 149.75 278.1 134.55 268.65 125.1 262.8 115.25 257.35 95.85 246.7 77.45 234.0 46.15 212.2 13.8 191.1 -0.5 181.75 -14.0 171.3 L-14.0 80.7 Q1.1 75.4 17.2 73.3 L42.5 70.7 Q64.05 68.95 85.25 65.0 104.6 61.4 123.7 56.15 L133.8 53.4 Q146.4 50.05 159.4 49.15 L208.0 46.05 213.15 45.6 Q311.8 45.6 410.35 46.6 L420.6 46.9 Q454.9 48.45 488.95 52.75 524.0 57.05 558.2 66.25 L626.45 84.65 Q660.7 94.0 694.6 103.9 L703.7 106.3 Q723.75 111.05 743.0 117.7 741.25 123.95 738.75 129.6 734.95 138.15 731.4 146.85" fill="#ffffff" fill-rule="evenodd" stroke="none"/>
    <path d="M-14.0 202.1 Q-9.15 207.9 -3.35 212.65 15.1 227.75 36.35 239.65 L40.35 241.9 Q71.85 259.5 105.8 273.25 110.3 275.1 114.35 277.55 127.5 285.35 138.45 277.35 L140.55 277.45 Q142.7 281.1 145.2 284.7 L169.55 320.6 Q172.5 324.9 175.85 328.7 180.75 334.05 185.25 339.95 205.5 365.95 237.2 372.15 246.75 374.0 256.25 376.35 291.3 385.1 327.05 388.35 L361.3 391.85 Q430.75 399.65 493.55 373.25 507.3 367.45 521.6 362.9 547.8 354.5 569.25 338.15 591.85 320.95 615.7 305.75 627.05 298.5 636.55 289.1 L657.05 269.25 Q684.6 243.3 703.8 210.55 712.65 195.45 717.6 178.5 724.3 166.95 728.9 153.8 L731.4 146.85 Q734.95 138.15 738.75 129.6 741.25 123.95 743.0 117.7 746.2 107.25 751.15 83.5 L751.15 479.95 -14.0 479.95 -14.0 202.1" fill="#e9ecf7" fill-rule="evenodd" stroke="none"/>
    <path d="M577.45 92.25 Q556.9 91.85 536.25 93.05 L526.45 94.25 Q526.9 93.05 528.7 92.85 L530.45 92.5 533.25 91.8 536.2 91.3 540.7 90.75 542.95 90.5 577.2 92.0 577.45 92.25 M559.5 184.8 Q570.95 189.75 582.55 195.25 568.55 193.35 558.45 185.5 L559.5 184.8 M596.2 166.75 Q579.3 175.3 561.0 183.75 576.55 173.1 595.95 166.8 L596.2 166.75 M376.0 145.9 Q316.55 138.1 259.0 139.5 318.55 136.4 377.1 144.1 L432.45 151.25 Q404.2 149.6 376.0 145.9 M463.95 314.25 Q484.95 313.45 504.1 305.55 512.15 302.2 519.95 300.0 553.1 299.75 583.45 310.5 546.9 299.0 510.6 307.15 501.5 309.15 492.45 312.25 466.15 321.2 439.8 318.75 439.45 318.75 439.2 318.0 442.1 311.45 452.15 314.65 456.85 316.15 461.7 315.75 L462.45 315.0 Q462.7 314.75 463.0 314.6 463.45 314.35 463.95 314.25 M607.7 218.25 Q602.75 222.7 598.3 227.8 597.2 229.05 597.45 230.75 608.05 243.0 626.45 241.95 638.95 241.25 648.45 243.25 619.0 248.2 596.7 232.5 596.3 231.05 596.5 229.5 L596.7 228.0 Q599.8 223.0 604.6 219.95 606.1 219.0 607.7 218.25 608.05 216.85 609.2 215.95 L609.95 215.25 Q608.85 210.6 606.45 207.0 L607.8 207.7 Q612.0 209.85 611.45 215.0 L607.7 218.25 M599.15 316.9 L599.45 317.25 Q597.95 317.25 596.7 316.7 590.7 314.2 585.0 311.2 L584.35 310.85 Q591.8 313.55 599.15 316.9 M214.5 167.0 Q178.6 161.8 142.05 167.05 133.4 168.3 125.5 166.75 L140.25 165.8 Q152.35 164.15 164.0 163.5 189.1 161.05 213.2 166.45 213.85 166.6 214.5 167.0 M148.25 246.75 Q124.75 256.55 100.25 252.75 125.45 251.4 149.75 246.15 L148.25 246.75 M256.25 240.75 L255.65 241.3 253.75 242.25 Q218.95 231.1 184.85 236.35 L196.0 232.25 Q225.8 233.2 254.55 240.65 L256.25 240.75" fill="#cccccc" fill-rule="evenodd" stroke="none"/>
  </g>
  <defs>
    <linearGradient gradientTransform="matrix(0.0, -0.0232, 0.467, 0.0, 382.55, 30.0)" gradientUnits="userSpaceOnUse" id="gradient0" spreadMethod="pad" x1="-819.2" x2="819.2">
      <stop offset="0.0" stop-color="#006699"/>
      <stop offset="1.0" stop-color="#015274"/>
    </linearGradient>
  </defs>
</svg>