<?xml version="1.0" encoding="UTF-8" standalone="no"?>
<svg xmlns:xlink="http://www.w3.org/1999/xlink" height="574.0px" width="1535.1px" xmlns="http://www.w3.org/2000/svg">
  <g transform="matrix(2.0, 0.0, 0.0, 2.0, 1.9, -392.5)">
    <use data-characterId="42" height="287.0" transform="matrix(1.0, 0.0, 0.0, 1.0, -0.95, 196.25)" width="767.55" xlink:href="#shape0"/>
  </g>
  <defs>
    <g id="shape0" transform="matrix(1.0, 0.0, 0.0, 1.0, 0.95, -196.25)">
      <path d="M740.0 366.75 L739.95 366.75 739.95 366.7 740.0 366.75 M746.8 419.55 L746.95 419.5 746.9 419.6 746.8 419.55 M0.75 332.4 L0.7 332.4 0.7 332.35 0.75 332.4 M-0.85 386.5 L-0.95 386.5 -0.95 386.45 -0.85 386.5" fill="#ff9900" fill-rule="evenodd" stroke="none"/>
      <path d="M-0.95 284.2 Q3.0 281.3 7.5 283.75 11.4 286.0 14.25 289.6 L12.75 291.05 10.3 288.55 10.0 287.3 9.3 287.4 8.8 289.4 8.2 289.45 6.25 285.75 Q4.1 286.85 1.9 288.0 L1.85 287.9 Q2.4 286.95 1.8 285.75 L1.45 285.1 0.8 285.3 -0.95 287.4 -0.95 284.2 M15.2 290.75 L14.85 290.35 15.2 290.75 M44.75 287.45 Q46.05 287.35 47.0 286.4 48.2 285.3 48.65 283.55 L48.95 283.55 Q50.6 288.85 55.15 292.05 L49.75 292.7 55.35 298.55 55.0 299.0 Q53.3 297.6 51.15 297.25 L47.7 297.5 Q46.85 295.35 44.65 294.45 L43.75 294.25 44.75 287.45 M-0.6 330.05 Q2.1 333.75 6.8 334.5 L10.3 335.1 10.25 335.2 7.15 339.7 5.7 336.1 1.4 337.2 0.75 332.4 0.7 332.35 0.7 332.4 -0.2 332.55 -0.95 333.5 -0.95 330.05 -0.6 330.05 M-0.95 388.65 L4.2 388.8 4.25 388.8 2.7 391.55 1.0 391.6 0.45 393.0 -0.95 392.05 -0.95 388.65 M38.65 282.3 L36.75 286.95 31.4 284.5 30.65 285.25 30.55 288.2 28.0 286.25 31.9 281.5 38.7 282.0 38.65 282.3 M47.25 283.1 L45.25 285.6 39.4 284.35 41.8 282.95 47.25 283.1 M55.45 315.15 L54.8 317.75 52.85 316.45 52.85 316.9 52.75 314.8 55.45 315.15 M40.9 326.85 L40.45 325.55 39.55 325.15 38.65 325.95 37.25 325.2 37.0 323.85 36.15 323.5 Q33.6 324.25 31.95 326.65 L31.5 326.2 Q30.8 325.15 30.25 323.8 L29.7 323.55 28.25 324.5 27.4 329.85 26.05 326.0 29.75 320.05 Q35.4 323.5 42.0 324.4 L40.9 326.85 M40.25 379.25 L37.15 380.85 38.3 377.85 40.25 379.25 M40.65 382.1 L41.4 380.15 42.45 380.95 41.1 382.05 40.65 382.1 M78.8 373.4 L76.9 376.65 74.75 374.5 73.4 375.4 73.3 376.0 Q72.05 374.1 69.9 373.4 L69.2 373.25 67.9 377.45 66.7 375.95 65.85 376.05 Q65.4 378.9 63.3 380.8 L62.3 379.6 Q64.75 376.8 64.4 373.0 L65.95 371.3 Q72.5 371.95 78.8 373.4 M95.55 335.85 L95.95 338.15 96.9 339.05 96.9 340.55 98.3 342.25 95.9 346.9 Q96.6 341.6 94.45 336.65 L95.55 335.85 M95.95 350.25 L94.9 351.6 95.45 352.95 Q94.65 357.8 90.5 360.35 L88.85 361.1 88.8 361.95 90.55 365.25 87.55 366.5 85.3 365.5 85.5 360.45 Q93.35 357.55 95.35 349.3 L95.95 350.25 M81.2 374.75 L79.65 373.45 81.85 373.05 81.2 374.75" fill="#68915a" fill-rule="evenodd" stroke="none"/>
      <path d="M725.45 286.0 L717.5 282.9 Q719.7 278.45 722.95 274.9 728.7 268.55 737.05 267.7 738.2 267.9 739.25 268.4 743.95 270.75 749.2 269.75 744.3 275.65 736.8 277.5 L736.9 279.35 737.7 279.65 739.0 278.9 738.35 278.05 738.95 277.5 741.85 277.35 Q742.75 277.05 743.45 276.55 749.35 271.95 755.05 266.8 752.25 254.6 758.8 244.0 752.0 232.95 756.15 220.6 L759.75 223.5 760.25 223.1 Q752.85 213.8 757.0 202.5 758.05 199.6 760.85 198.75 761.6 198.6 762.3 198.75 765.3 199.3 766.6 202.3 L766.6 225.15 762.15 224.75 Q757.75 229.05 759.35 235.3 761.2 242.55 762.65 249.8 763.2 252.65 763.0 255.65 L762.15 269.1 761.0 270.3 Q759.2 271.15 757.1 271.6 756.55 271.75 756.2 272.2 752.95 276.25 747.8 277.4 746.3 277.6 744.9 278.5 741.65 280.7 739.45 283.75 738.1 285.65 735.7 285.7 731.35 285.1 726.85 285.7 L725.45 286.0 M679.7 363.35 Q688.6 356.15 699.15 360.25 699.75 362.2 701.4 363.3 702.75 364.2 703.8 362.9 L703.9 362.35 708.65 364.15 707.05 364.3 707.3 364.8 708.95 364.8 710.2 366.0 710.2 366.5 710.9 366.95 716.05 362.65 Q720.6 363.4 724.3 365.8 730.35 361.75 734.3 355.6 L735.1 356.45 Q739.05 361.3 739.35 367.25 732.9 373.0 727.15 379.15 725.65 380.7 723.6 381.8 717.35 385.05 710.45 383.85 L710.15 384.25 710.55 384.95 714.75 385.8 707.05 387.55 701.3 386.05 700.6 384.05 701.75 381.0 Q699.55 380.35 697.3 380.95 693.5 382.1 690.75 379.3 691.1 376.0 689.9 372.8 L689.45 375.25 689.4 375.5 Q684.9 374.75 681.55 372.1 L682.1 370.5 686.65 369.5 686.75 368.85 Q681.75 368.4 679.35 364.3 L679.7 363.35 M698.2 333.8 L704.8 329.55 700.95 327.55 709.5 325.2 Q716.55 330.7 725.6 328.45 728.0 327.8 730.4 328.55 724.4 331.8 717.6 330.65 L715.85 330.25 715.4 330.45 715.3 330.9 Q718.45 333.35 722.45 333.35 728.75 333.4 732.4 328.55 738.95 329.7 744.55 326.05 L746.8 324.5 744.25 331.1 Q739.8 333.85 734.45 334.35 L732.9 334.4 732.95 335.45 Q742.0 336.55 749.6 330.8 755.4 326.5 756.5 319.2 761.6 327.55 758.8 337.35 L758.5 337.9 Q757.25 339.25 754.65 338.95 L749.0 339.1 Q746.9 339.45 745.05 340.55 L739.3 340.7 Q735.25 338.55 730.8 339.2 L729.05 339.65 Q724.75 341.4 720.15 341.25 719.45 345.15 715.75 344.65 711.6 344.1 707.75 342.5 705.45 341.55 704.6 339.2 701.5 336.2 698.2 333.8 M739.75 304.95 L740.1 298.95 Q742.4 294.3 748.15 293.45 L749.65 293.7 Q754.8 295.7 753.75 301.35 752.9 306.0 748.5 307.35 743.35 309.0 739.75 304.95 M722.35 299.65 L722.05 298.35 Q720.7 291.75 726.4 288.15 L726.5 288.2 726.5 288.15 731.7 287.75 Q734.85 289.75 735.45 293.4 736.0 296.9 733.0 298.85 727.95 302.25 722.35 299.75 L722.35 299.65 M619.3 480.0 Q630.35 473.75 639.75 465.0 L639.8 464.1 639.75 467.15 640.6 467.6 Q642.75 462.35 646.2 457.8 649.55 453.3 654.35 450.65 663.2 445.75 670.4 438.8 L672.45 442.45 Q674.15 445.35 677.1 446.95 L677.8 447.3 677.6 446.15 Q672.85 441.75 672.3 435.25 671.4 424.9 680.35 419.55 L683.6 424.45 684.4 424.4 Q681.2 417.2 683.55 409.9 684.1 408.2 685.45 407.1 695.45 398.95 708.35 402.15 709.9 404.9 712.1 406.95 714.4 409.1 717.3 409.7 725.75 411.85 731.6 405.35 L735.65 411.05 731.6 417.75 Q722.45 412.2 711.7 410.3 708.7 409.85 705.95 408.45 L705.7 407.2 700.15 407.5 Q697.45 407.2 695.85 409.35 691.4 409.55 687.5 411.25 686.25 411.85 685.65 413.25 684.5 416.15 686.75 418.35 688.1 419.65 689.6 420.75 700.45 428.75 714.0 427.95 720.05 427.5 725.75 429.45 728.5 430.35 730.15 432.7 733.1 436.85 734.25 441.75 734.85 444.25 736.6 446.2 740.05 450.0 744.95 450.35 751.15 453.95 759.45 453.35 763.35 453.1 765.55 450.95 L765.65 450.9 765.6 450.85 766.6 449.6 766.6 466.55 Q757.2 473.2 746.9 468.15 744.5 467.0 742.4 465.35 735.25 459.35 726.05 457.45 712.2 454.5 700.45 462.05 L696.75 464.95 Q694.5 467.0 691.8 468.5 688.2 470.45 684.3 469.85 671.2 469.7 661.35 478.15 646.5 472.75 632.25 480.0 L619.3 480.0 M18.85 206.75 L19.05 206.1 21.8 203.85 22.45 203.9 Q25.2 209.85 24.95 216.35 L22.15 217.8 Q25.45 217.6 26.8 220.25 27.45 221.55 27.7 223.1 29.0 231.25 26.4 239.0 32.05 243.55 32.3 251.0 32.35 253.15 31.9 255.6 35.6 257.55 36.7 261.55 38.55 268.4 44.6 272.15 37.85 273.9 31.9 270.5 L31.1 269.95 31.1 269.55 30.7 269.6 Q28.05 264.85 23.7 261.95 22.2 260.9 20.4 260.4 19.05 255.6 18.9 250.35 L18.85 247.95 17.75 238.9 Q19.6 236.8 18.8 234.05 L18.4 232.85 22.2 226.2 20.0 227.6 Q16.25 225.85 15.65 221.8 15.5 220.95 15.75 220.15 16.9 216.1 21.2 216.7 L22.75 214.6 21.8 208.8 18.85 206.75 M47.65 271.45 Q43.85 269.9 41.25 267.05 L40.7 266.25 44.9 265.55 45.7 266.1 53.65 265.7 54.4 266.35 Q55.4 267.4 55.75 268.75 53.6 270.3 51.0 270.85 L47.65 271.45 M12.85 292.7 L15.2 290.75 16.55 292.6 Q19.65 293.8 23.0 293.35 25.35 291.55 26.65 288.85 L27.25 287.65 Q28.25 289.3 29.95 289.9 L31.65 290.5 32.05 290.1 32.25 286.75 Q35.0 288.4 38.4 288.55 L38.65 285.6 42.85 287.35 44.75 287.45 43.85 287.5 Q43.25 291.9 41.2 295.75 L45.9 296.5 46.3 299.5 52.9 299.25 Q53.55 300.8 55.2 301.05 L57.2 299.9 Q61.15 301.65 64.4 299.0 L65.1 298.95 66.9 296.85 66.75 295.25 66.4 294.85 66.15 294.95 64.95 296.85 65.0 296.4 Q65.45 294.45 64.55 292.7 L58.85 291.8 55.1 289.75 60.55 289.1 63.0 288.55 63.05 288.6 63.05 288.55 Q69.9 287.55 74.2 292.65 L75.85 294.6 75.75 294.7 Q62.55 302.15 48.7 308.25 39.35 312.35 29.5 309.9 L27.25 309.35 Q22.5 310.0 18.85 312.75 18.8 308.25 17.35 303.85 L17.0 302.85 Q17.7 308.45 17.4 314.15 14.65 315.9 11.45 315.6 L10.55 315.45 Q9.1 313.65 8.85 311.0 L9.4 304.15 12.85 292.7 M61.05 316.8 L67.75 328.3 58.9 327.3 58.65 327.65 58.7 329.0 Q63.8 336.3 71.6 340.4 73.3 341.2 74.45 342.55 77.05 345.6 81.0 346.3 L82.2 345.95 Q86.45 342.9 87.6 337.45 L86.1 339.05 86.05 338.15 Q83.1 335.75 80.05 338.35 L79.85 338.5 Q78.25 336.05 75.1 334.6 76.7 334.65 77.55 333.3 78.1 332.4 78.95 331.8 L80.85 330.8 83.2 331.3 84.95 334.35 85.4 334.6 85.5 334.65 85.55 334.6 Q87.55 332.3 90.1 330.7 L91.15 330.35 92.2 330.8 91.95 334.75 92.2 335.25 90.9 341.5 Q90.65 343.2 89.85 344.85 87.7 349.3 83.35 351.65 L74.6 355.55 Q61.6 361.6 47.5 358.9 L45.4 358.75 43.9 359.5 Q37.9 362.6 32.35 358.7 30.25 357.25 27.65 357.75 25.1 357.7 23.35 355.8 L23.45 355.35 Q25.7 349.45 30.35 345.4 32.1 349.7 35.55 352.75 41.3 357.95 48.8 355.55 L43.35 354.75 36.25 343.25 37.5 340.0 Q46.95 336.75 54.4 330.25 60.55 324.9 61.05 316.8 M-0.95 401.15 L3.35 399.9 8.8 402.2 11.65 398.65 14.55 404.0 Q9.45 405.05 5.7 408.4 2.8 411.1 1.75 414.75 L-0.95 424.0 -0.95 401.15 M40.55 403.9 Q36.35 397.3 34.0 389.85 L40.15 387.15 51.0 390.85 57.1 389.35 Q63.9 387.2 70.5 388.8 73.45 389.4 75.4 391.95 79.9 397.95 80.0 405.75 80.05 409.9 80.45 413.95 81.45 423.9 85.0 433.4 88.05 441.45 95.25 446.0 89.6 444.6 84.25 442.1 78.0 439.2 71.0 439.15 L65.5 439.8 Q59.4 441.25 53.4 439.5 L55.4 436.35 54.8 436.25 53.4 437.3 52.5 440.5 53.55 441.5 65.95 440.8 Q72.2 440.75 78.15 442.75 L88.1 445.95 Q95.7 448.4 103.85 448.2 107.85 448.1 111.75 447.15 121.65 444.8 131.7 446.05 137.5 447.0 142.15 450.15 160.95 462.65 169.65 483.25 L130.7 483.25 Q121.85 475.85 110.5 473.65 105.35 472.55 100.15 473.65 L74.9 479.3 Q64.9 481.4 54.7 480.15 L52.05 479.3 Q37.65 473.6 22.9 477.9 17.15 472.7 9.35 471.3 8.7 466.4 6.8 461.85 4.5 456.4 -0.95 454.55 L-0.95 424.0 Q15.8 429.2 33.45 428.45 42.85 427.55 51.0 423.15 L51.0 422.55 Q61.5 417.3 70.45 409.7 74.75 406.05 75.7 400.65 76.5 395.9 72.3 393.55 70.9 392.75 69.1 392.65 61.9 392.5 55.35 395.7 47.75 399.4 40.55 403.9 M28.5 298.0 Q28.4 299.9 29.05 301.8 31.35 308.55 38.15 309.8 L44.25 302.55 41.2 304.25 Q36.1 303.75 33.7 299.25 32.75 297.45 33.45 295.45 30.4 295.8 28.5 298.0 M52.15 337.1 Q55.15 347.55 65.6 350.75 70.0 352.0 74.55 351.55 64.8 349.55 58.1 342.25 L52.95 336.7 52.15 337.1" fill="#ffffff" fill-rule="evenodd" stroke="none"/>
      <path d="M743.5 360.15 Q745.95 359.45 748.0 357.7 L749.0 356.85 749.2 359.05 749.6 359.2 756.3 356.85 756.3 360.85 760.3 361.05 Q758.55 364.5 759.25 368.5 L760.55 368.85 763.4 365.9 765.0 367.35 766.6 366.7 766.6 378.45 Q758.8 377.8 753.65 383.2 750.25 386.75 745.55 387.9 743.15 376.5 751.55 368.3 L751.25 367.6 Q748.55 369.45 746.7 372.05 741.2 379.7 743.3 388.8 741.95 389.55 740.75 390.5 736.2 393.85 730.8 394.05 L730.85 393.8 730.2 393.2 729.8 393.75 Q727.05 392.5 728.0 389.75 729.05 386.8 731.2 384.75 729.95 381.2 732.95 378.95 L739.3 374.45 Q742.0 372.75 743.45 369.9 745.9 365.05 743.5 360.15 M756.5 319.2 Q756.3 313.85 752.05 310.05 753.15 309.7 753.9 308.5 L755.7 305.55 Q756.8 308.65 759.8 309.95 L760.65 310.15 763.2 307.85 764.7 310.35 766.6 310.55 766.6 346.25 Q764.7 345.3 762.55 343.95 759.1 341.8 758.5 337.9 L758.8 337.35 Q761.6 327.55 756.5 319.2 M766.6 308.4 L765.8 308.9 764.25 303.85 763.35 303.75 760.15 308.9 759.45 308.85 Q757.2 305.3 756.5 301.0 L755.6 300.9 Q754.5 305.9 750.6 309.2 748.35 311.0 745.35 310.4 740.8 309.5 739.75 304.95 743.35 309.0 748.5 307.35 752.9 306.0 753.75 301.35 754.8 295.7 749.65 293.7 L753.7 289.5 Q755.4 287.9 757.6 287.3 762.2 286.35 766.6 288.3 L766.6 308.4 M695.85 409.35 Q692.0 416.85 697.2 423.5 698.5 425.1 700.5 425.05 714.8 423.4 728.8 425.7 730.1 425.9 731.35 426.6 733.95 428.1 735.05 430.7 736.95 435.2 737.4 440.0 737.7 441.8 738.4 443.5 740.3 448.05 744.95 450.35 740.05 450.0 736.6 446.2 734.85 444.25 734.25 441.75 733.1 436.85 730.15 432.7 728.5 430.35 725.75 429.45 720.05 427.5 714.0 427.95 700.45 428.75 689.6 420.75 688.1 419.65 686.75 418.35 684.5 416.15 685.65 413.25 686.25 411.85 687.5 411.25 691.4 409.55 695.85 409.35 M753.1 428.65 Q756.65 424.55 758.15 419.35 L759.2 420.5 Q762.25 423.85 766.6 423.7 L766.6 434.5 Q763.6 430.15 755.9 428.7 L753.1 428.65 M766.6 422.35 Q762.8 421.35 759.7 418.9 L758.65 417.9 758.75 417.45 760.95 416.2 Q762.5 415.05 763.3 413.4 753.65 417.65 743.65 414.0 741.0 412.95 738.85 411.05 734.65 407.55 732.6 402.6 L733.9 403.3 Q739.05 405.5 744.05 402.65 L746.25 404.75 Q750.85 408.25 757.7 406.2 761.9 407.9 766.15 406.35 L766.15 406.4 Q766.05 407.95 766.6 408.8 L766.6 422.35 M732.5 402.55 Q729.4 405.45 725.5 407.55 720.85 410.15 716.15 407.75 710.0 404.7 709.8 397.8 L710.7 397.25 695.75 393.6 Q695.65 393.25 695.85 392.95 696.6 391.9 697.5 391.1 L697.95 391.1 702.35 390.0 Q701.9 392.25 703.25 394.15 L704.1 394.3 Q706.85 394.55 708.3 392.2 711.6 396.35 716.45 394.3 L716.7 395.25 Q717.7 398.7 721.3 399.15 L722.45 399.25 726.9 403.0 732.5 402.55 M760.65 316.5 L759.75 317.0 Q759.15 323.15 760.15 329.55 761.15 335.6 765.35 339.6 765.7 338.25 764.85 336.95 L764.15 335.85 763.2 334.75 761.35 316.8 760.65 316.5 M748.0 403.85 L746.05 402.7 Q746.85 402.7 747.45 403.05 748.0 403.35 748.0 403.85 M17.75 238.9 L18.85 247.95 18.15 251.5 Q17.45 253.3 15.6 254.3 L15.3 254.5 Q14.15 254.1 14.2 252.55 14.5 246.05 16.3 240.1 L17.75 238.9 M27.2 284.15 L25.1 287.65 Q23.7 289.9 21.95 291.75 L18.15 291.2 Q15.35 287.7 12.0 284.45 8.6 281.2 4.05 280.1 L-0.95 282.1 -0.95 270.65 Q4.1 273.0 7.05 267.9 8.95 264.55 10.05 260.8 9.85 267.35 12.55 273.2 L14.3 273.35 Q23.95 274.85 27.2 284.15 M-0.95 288.75 L0.4 287.7 0.4 290.2 0.85 290.9 Q2.1 290.65 2.85 289.85 L5.45 287.35 7.55 291.0 9.45 290.85 9.6 290.9 9.7 290.6 11.75 292.55 12.85 292.7 9.4 304.15 Q9.15 301.1 7.3 298.4 L6.65 297.5 Q10.25 304.9 6.75 312.15 5.55 314.65 3.45 316.2 L-0.95 315.8 Q1.25 319.4 4.65 317.4 8.25 315.2 8.85 311.0 9.1 313.65 10.55 315.45 L11.45 315.6 Q14.65 315.9 17.4 314.15 L16.4 319.85 16.75 320.25 Q17.75 320.4 18.1 319.45 19.35 316.15 18.85 312.75 22.5 310.0 27.25 309.35 L29.5 309.9 29.9 310.5 28.65 318.7 28.45 318.95 Q25.2 324.5 20.85 329.05 L18.45 331.0 Q11.7 334.9 4.7 331.45 L-0.95 328.35 -0.95 315.8 -0.95 288.75 M-0.95 335.5 L-0.15 334.65 0.0 334.65 0.25 339.05 1.95 338.65 Q3.35 338.25 4.45 337.25 5.1 338.75 6.0 340.1 L7.45 341.8 8.45 341.45 11.05 336.55 12.45 336.75 13.9 334.95 Q20.95 333.65 25.0 327.8 L27.45 332.2 28.4 332.0 29.45 326.3 29.5 326.25 31.85 328.8 32.9 328.5 34.15 326.05 35.75 325.1 38.6 327.75 39.45 327.25 40.5 329.05 41.5 329.1 43.7 324.4 Q47.65 324.25 50.6 321.9 52.15 320.6 52.55 318.65 L56.3 319.75 56.8 315.7 60.2 315.8 Q57.4 325.25 48.65 329.75 41.9 333.2 34.85 336.05 L37.5 340.0 36.25 343.25 43.35 354.75 38.2 353.3 Q32.75 347.05 30.4 338.9 L30.25 338.3 Q26.0 336.75 21.8 338.75 19.15 340.15 15.95 340.75 L13.4 348.3 13.05 348.0 8.95 360.3 Q4.2 367.2 -0.05 361.0 -0.25 360.9 -0.5 360.75 L-0.95 360.9 -0.95 335.5 M94.65 340.6 Q95.25 343.55 94.75 346.5 94.15 350.3 92.15 353.6 89.75 357.6 85.15 358.45 84.8 364.65 82.45 370.1 74.65 371.3 66.9 369.15 63.05 372.0 61.15 376.35 L59.65 378.8 Q56.35 382.85 51.0 381.75 42.75 379.85 35.7 374.95 32.65 372.9 29.0 372.95 23.2 373.35 19.15 378.0 11.15 387.0 -0.85 386.5 L-0.95 386.45 -0.95 361.5 Q1.05 365.3 5.4 365.0 6.55 364.9 7.35 364.05 13.5 358.0 13.5 348.9 14.05 349.35 14.05 350.05 13.95 358.55 14.25 367.05 16.85 368.45 19.7 368.15 22.65 367.65 24.8 365.6 28.5 362.0 32.35 358.7 37.9 362.6 43.9 359.5 L45.4 358.75 47.5 358.9 Q47.2 362.45 49.25 365.15 51.85 368.55 56.2 366.9 65.95 362.9 76.3 363.9 77.25 363.85 77.95 363.2 82.85 358.55 83.35 351.65 87.7 349.3 89.85 344.85 90.65 343.2 90.9 341.5 L94.65 340.6 M14.55 404.0 L16.6 407.75 Q8.75 407.7 4.35 414.2 L5.4 415.0 Q7.05 416.15 8.95 415.65 19.75 410.3 31.15 414.3 39.05 417.1 47.35 417.45 54.65 416.6 58.15 410.25 61.35 404.4 59.35 397.85 L56.2 399.6 Q52.9 402.45 51.05 406.5 49.95 409.0 49.0 411.6 45.65 409.3 42.9 406.45 L40.55 403.9 Q47.75 399.4 55.35 395.7 61.9 392.5 69.1 392.65 70.9 392.75 72.3 393.55 76.5 395.9 75.7 400.65 74.75 406.05 70.45 409.7 61.5 417.3 51.0 422.55 L51.0 423.15 Q42.85 427.55 33.45 428.45 15.8 429.2 -0.95 424.0 L1.75 414.75 Q2.8 411.1 5.7 408.4 9.45 405.05 14.55 404.0 M-0.95 261.05 Q3.65 259.55 6.75 255.95 7.65 254.85 9.1 254.3 L10.65 255.25 Q9.3 260.0 7.35 264.4 5.55 268.35 1.65 270.05 L-0.95 269.5 -0.95 261.05" fill="#c3cdd6" fill-rule="evenodd" stroke="none"/>
      <path d="M731.6 417.75 L727.25 422.4 Q714.3 420.85 701.2 422.2 700.35 422.35 699.55 421.9 697.25 420.5 696.7 417.65 695.6 411.95 700.05 408.25 L704.75 408.4 705.35 408.8 705.95 408.45 Q708.7 409.85 711.7 410.3 722.45 412.2 731.6 417.75 M737.4 440.0 L740.55 444.7 Q741.75 446.8 743.85 448.25 749.15 451.95 754.9 449.2 755.7 448.85 755.9 447.95 L748.15 447.4 Q744.2 446.55 742.2 443.3 L740.2 439.6 Q747.45 434.95 753.1 428.65 L755.9 428.7 Q763.6 430.15 766.6 434.5 L766.6 449.6 765.6 450.85 765.55 450.95 Q763.35 453.1 759.45 453.35 751.15 453.95 744.95 450.35 740.3 448.05 738.4 443.5 737.7 441.8 737.4 440.0 M766.6 466.55 L766.6 480.05 632.25 480.0 Q646.5 472.75 661.35 478.15 671.2 469.7 684.3 469.85 688.2 470.45 691.8 468.5 694.5 467.0 696.75 464.95 L700.45 462.05 Q712.2 454.5 726.05 457.45 735.25 459.35 742.4 465.35 744.5 467.0 746.9 468.15 757.2 473.2 766.6 466.55 M16.6 407.75 L18.2 409.95 16.7 410.4 Q11.65 411.35 8.95 415.65 7.05 416.15 5.4 415.0 L4.35 414.2 Q8.75 407.7 16.6 407.75 M56.2 399.6 L58.15 398.9 Q60.65 408.85 52.2 414.05 L51.0 413.55 51.0 412.9 49.0 411.6 Q49.95 409.0 51.05 406.5 52.9 402.45 56.2 399.6 M-0.95 454.55 Q4.5 456.4 6.8 461.85 8.7 466.4 9.35 471.3 17.15 472.7 22.9 477.9 37.65 473.6 52.05 479.3 L54.7 480.15 Q64.9 481.4 74.9 479.3 L100.15 473.65 Q105.35 472.55 110.5 473.65 121.85 475.85 130.7 483.25 L-0.95 483.25 -0.95 454.55" fill="#8a99aa" fill-rule="evenodd" stroke="none"/>
      <path d="M703.9 362.35 L701.75 359.95 Q709.45 354.65 718.55 356.1 721.55 356.7 723.55 358.8 724.65 360.0 726.1 360.8 L727.65 361.4 724.6 364.25 724.0 364.3 Q721.15 362.0 717.6 361.45 L715.2 361.15 Q713.7 363.7 710.9 364.9 L708.65 364.15 703.9 362.35 M734.3 355.6 L735.9 352.95 Q737.75 353.75 739.7 353.75 L738.55 360.9 739.85 360.9 743.5 360.15 Q745.9 365.05 743.45 369.9 742.0 372.75 739.3 374.45 L732.95 378.95 Q729.95 381.2 731.2 384.75 729.05 386.8 728.0 389.75 727.05 392.5 729.8 393.75 725.0 399.35 718.25 396.3 L717.45 392.5 713.45 392.2 Q708.9 392.1 708.35 387.6 L707.05 387.55 714.75 385.8 Q718.1 385.95 721.5 384.55 730.75 380.75 736.55 372.35 737.35 371.2 738.4 370.45 740.8 368.65 740.0 366.75 L739.95 366.7 739.95 366.75 739.35 367.25 Q739.05 361.3 735.1 356.45 L734.3 355.6 M766.6 355.2 L763.2 355.55 762.15 354.65 Q760.9 353.5 761.0 351.75 763.3 350.5 764.65 347.9 L764.9 346.9 764.05 346.9 Q761.2 350.75 756.4 351.1 754.1 350.95 752.1 349.35 750.55 348.05 750.35 346.1 747.15 347.3 745.0 350.2 L743.6 351.4 Q738.95 353.7 734.6 350.45 L730.6 346.95 Q721.25 349.2 711.7 348.2 L707.75 347.5 Q700.25 344.7 697.05 337.25 L697.45 334.6 698.2 333.8 Q701.5 336.2 704.6 339.2 705.45 341.55 707.75 342.5 711.6 344.1 715.75 344.65 719.45 345.15 720.15 341.25 724.75 341.4 729.05 339.65 L730.8 339.2 Q735.25 338.55 739.3 340.7 L745.05 340.55 Q746.9 339.45 749.0 339.1 L754.65 338.95 Q757.25 339.25 758.5 337.9 759.1 341.8 762.55 343.95 764.7 345.3 766.6 346.25 L766.6 355.2 M709.5 325.2 Q713.1 325.4 716.1 323.4 L717.3 322.65 Q714.8 320.55 714.1 317.55 718.05 314.7 722.6 316.5 726.05 317.75 729.8 318.05 732.2 318.5 734.3 319.8 L728.6 325.75 737.95 322.85 Q735.0 325.95 731.15 327.5 L731.0 328.15 730.4 328.55 Q728.0 327.8 725.6 328.45 716.55 330.7 709.5 325.2 M740.1 298.95 L739.9 297.95 738.45 298.25 Q734.8 303.75 728.1 304.25 723.25 304.2 722.35 299.75 727.95 302.25 733.0 298.85 736.0 296.9 735.45 293.4 734.85 289.75 731.7 287.75 L731.85 287.3 731.3 286.6 727.1 286.3 726.85 285.9 726.85 285.7 Q731.35 285.1 735.7 285.7 738.1 285.65 739.45 283.75 741.65 280.7 744.9 278.5 746.3 277.6 747.8 277.4 752.95 276.25 756.2 272.2 756.55 271.75 757.1 271.6 759.2 271.15 761.0 270.3 756.3 277.75 752.05 285.45 L751.35 286.3 Q748.8 288.3 745.55 287.35 L745.5 288.5 Q749.2 290.55 752.15 287.4 754.6 284.85 756.55 281.9 758.65 278.65 760.45 274.8 L761.45 273.35 Q763.4 271.1 762.15 269.1 L763.0 255.65 Q763.2 252.65 762.65 249.8 761.2 242.55 759.35 235.3 757.75 229.05 762.15 224.75 L766.6 225.15 766.6 288.3 Q762.2 286.35 757.6 287.3 755.4 287.9 753.7 289.5 L749.65 293.7 748.15 293.45 Q742.4 294.3 740.1 298.95 M681.55 372.1 Q684.9 374.75 689.4 375.5 L689.45 375.5 689.45 380.05 692.35 382.1 692.15 386.1 698.4 386.4 696.4 389.7 696.55 390.9 697.95 391.1 697.5 391.1 Q696.6 391.9 695.85 392.95 695.65 393.25 695.75 393.6 689.75 391.45 686.05 386.4 681.5 380.1 681.55 372.1 M732.6 402.6 L732.55 402.5 732.5 402.55 726.9 403.0 722.45 399.25 Q727.0 399.05 730.1 395.7 730.75 395.0 730.8 394.05 736.2 393.85 740.75 390.5 741.95 389.55 743.3 388.8 744.7 393.95 749.25 397.1 749.85 397.05 750.0 396.5 746.85 392.65 745.55 387.95 L745.55 387.9 Q750.25 386.75 753.65 383.2 758.8 377.8 766.6 378.45 L766.6 404.55 Q762.95 405.4 759.4 403.9 L759.35 400.8 757.65 400.65 756.7 404.15 755.7 404.55 Q751.75 405.7 748.0 403.85 748.0 403.35 747.45 403.05 746.85 402.7 746.05 402.7 744.35 401.4 742.9 399.4 742.25 400.25 743.35 401.75 L744.05 402.65 Q739.05 405.5 733.9 403.3 L732.6 402.6 M18.85 206.75 L21.8 208.8 22.75 214.6 21.2 216.7 Q16.9 216.1 15.75 220.15 15.5 220.95 15.65 221.8 16.25 225.85 20.0 227.6 16.05 231.55 17.7 236.6 15.45 238.0 14.7 240.6 L15.25 240.9 15.8 240.8 16.3 240.1 Q14.5 246.05 14.2 252.55 14.15 254.1 15.3 254.5 L15.6 254.3 Q17.45 253.3 18.15 251.5 17.65 261.35 23.3 269.5 25.5 272.6 29.2 272.25 L31.1 269.95 31.9 270.5 Q37.85 273.9 44.6 272.15 L47.65 271.45 51.0 270.85 Q53.6 270.3 55.75 268.75 L56.2 270.55 Q55.05 272.4 54.2 274.4 53.4 276.2 52.15 277.6 L50.95 278.6 Q45.4 281.85 38.9 280.55 32.05 279.1 27.2 284.15 23.95 274.85 14.3 273.35 L12.55 273.2 Q9.85 267.35 10.05 260.8 L11.5 251.7 10.65 255.25 9.1 254.3 Q7.65 254.85 6.75 255.95 3.65 259.55 -0.95 261.05 L-0.95 251.15 5.2 244.5 Q7.4 241.85 8.75 238.55 12.0 230.75 13.75 222.35 L12.4 220.7 Q13.0 218.6 14.65 217.3 L17.75 215.15 18.2 216.0 18.85 206.75 M20.4 260.4 Q22.2 260.9 23.7 261.95 28.05 264.85 30.7 269.6 L27.75 271.25 Q23.1 267.9 21.15 262.7 L20.4 260.4 M40.7 266.25 L38.05 261.05 41.2 261.3 44.9 265.55 40.7 266.25 M64.95 296.85 Q61.0 300.2 56.75 297.05 L52.0 293.65 Q57.1 295.45 62.0 293.05 L58.85 291.8 64.55 292.7 Q65.45 294.45 65.0 296.4 L64.95 296.85 M75.9 294.6 Q79.2 299.8 75.7 305.2 74.7 306.7 73.1 307.9 63.65 314.45 52.15 313.0 L51.3 313.75 Q51.35 317.05 49.95 320.0 49.45 321.05 48.3 321.3 39.1 324.1 30.9 319.05 L30.55 318.0 28.7 318.75 28.65 318.7 29.9 310.5 29.5 309.9 Q39.35 312.35 48.7 308.25 62.55 302.15 75.75 294.7 L75.9 294.6 M56.8 315.7 L56.9 315.15 59.85 314.8 61.05 316.8 Q60.55 324.9 54.4 330.25 46.95 336.75 37.5 340.0 L34.85 336.05 Q41.9 333.2 48.65 329.75 57.4 325.25 60.2 315.8 L56.8 315.7 M86.1 339.05 Q85.05 342.3 82.25 343.9 L80.6 344.1 Q75.5 343.65 73.95 338.8 L69.9 336.85 69.9 335.75 72.4 333.5 73.5 333.45 75.1 334.6 Q78.25 336.05 79.85 338.5 L80.05 338.35 Q83.1 335.75 86.05 338.15 L86.1 339.05 M92.2 335.25 L94.65 340.6 90.9 341.5 92.2 335.25 M41.2 304.25 L37.25 308.0 Q36.3 308.15 35.7 307.55 31.05 303.45 28.5 298.0 30.4 295.8 33.45 295.45 32.75 297.45 33.7 299.25 36.1 303.75 41.2 304.25 M30.2 338.3 L29.7 338.2 28.8 338.6 Q28.4 342.15 30.35 345.4 25.7 349.45 23.45 355.35 L23.35 355.8 Q25.1 357.7 27.65 357.75 30.25 357.25 32.35 358.7 28.5 362.0 24.8 365.6 22.65 367.65 19.7 368.15 16.85 368.45 14.25 367.05 13.95 358.55 14.05 350.05 14.05 349.35 13.5 348.9 L13.4 348.3 15.95 340.75 Q19.15 340.15 21.8 338.75 26.0 336.75 30.25 338.3 L30.2 338.3 M83.35 351.65 Q82.85 358.55 77.95 363.2 77.25 363.85 76.3 363.9 65.95 362.9 56.2 366.9 51.85 368.55 49.25 365.15 47.2 362.45 47.5 358.9 61.6 361.6 74.6 355.55 L83.35 351.65" fill="#f0f4f7" fill-rule="evenodd" stroke="none"/>
      <path d="M766.6 202.3 Q765.3 199.3 762.3 198.75 761.6 198.6 760.85 198.75 758.05 199.6 757.0 202.5 752.85 213.8 760.25 223.1 L759.75 223.5 756.15 220.6 Q752.0 232.95 758.8 244.0 752.25 254.6 755.05 266.8 749.35 271.95 743.45 276.55 742.75 277.05 741.85 277.35 L738.95 277.5 738.35 278.05 739.0 278.9 737.7 279.65 736.9 279.35 736.8 277.5 Q744.3 275.65 749.2 269.75 743.95 270.75 739.25 268.4 738.2 267.9 737.05 267.7 728.7 268.55 722.95 274.9 719.7 278.45 717.5 282.9 L725.45 286.0 726.25 286.15 726.85 285.9 727.1 286.3 731.3 286.6 731.85 287.3 731.7 287.75 726.5 288.15 726.4 288.15 Q720.7 291.75 722.05 298.35 L722.35 299.65 722.35 299.75 Q723.25 304.2 728.1 304.25 734.8 303.75 738.45 298.25 L739.9 297.95 740.1 298.95 739.75 304.95 Q740.8 309.5 745.35 310.4 748.35 311.0 750.6 309.2 754.5 305.9 755.6 300.9 L756.5 301.0 Q757.2 305.3 759.45 308.85 L760.15 308.9 763.35 303.75 764.25 303.85 765.8 308.9 766.6 308.4 766.6 310.55 764.7 310.35 763.2 307.85 760.65 310.15 759.8 309.95 Q756.8 308.65 755.7 305.55 L753.9 308.5 Q753.15 309.7 752.05 310.05 756.3 313.85 756.5 319.2 755.4 326.5 749.6 330.8 742.0 336.55 732.95 335.45 L732.9 334.4 734.45 334.35 Q739.8 333.85 744.25 331.1 L746.8 324.5 744.55 326.05 Q738.95 329.7 732.4 328.55 728.75 333.4 722.45 333.35 718.45 333.35 715.3 330.9 L715.4 330.45 715.85 330.25 717.6 330.65 Q724.4 331.8 730.4 328.55 L731.0 328.15 731.15 327.5 Q735.0 325.95 737.95 322.85 L728.6 325.75 734.3 319.8 Q732.2 318.5 729.8 318.05 726.05 317.75 722.6 316.5 718.05 314.7 714.1 317.55 714.8 320.55 717.3 322.65 L716.1 323.4 Q713.1 325.4 709.5 325.2 L700.95 327.55 704.8 329.55 698.2 333.8 697.45 334.6 697.05 337.25 Q700.25 344.7 707.75 347.5 L711.7 348.2 Q721.25 349.2 730.6 346.95 L734.6 350.45 Q738.95 353.7 743.6 351.4 L745.0 350.2 Q747.15 347.3 750.35 346.1 750.55 348.05 752.1 349.35 754.1 350.95 756.4 351.1 761.2 350.75 764.05 346.9 L764.9 346.9 764.65 347.9 Q763.3 350.5 761.0 351.75 760.9 353.5 762.15 354.65 L763.2 355.55 766.6 355.2 766.6 356.65 Q762.95 357.7 760.35 354.75 L759.65 353.95 759.6 352.45 Q753.45 353.8 749.5 349.05 746.3 353.7 740.65 353.75 741.6 356.95 739.95 359.8 745.3 358.85 749.05 354.95 749.95 354.0 751.05 353.8 L750.5 358.1 757.1 355.6 757.15 359.75 761.6 359.8 761.9 360.35 760.8 365.65 763.65 362.25 764.25 362.3 764.65 362.65 765.05 365.6 766.6 364.0 766.6 366.7 765.0 367.35 763.4 365.9 760.55 368.85 759.25 368.5 Q758.55 364.5 760.3 361.05 L756.3 360.85 756.3 356.85 749.6 359.2 749.2 359.05 749.0 356.85 748.0 357.7 Q745.95 359.45 743.5 360.15 L739.85 360.9 738.55 360.9 739.7 353.75 Q737.75 353.75 735.9 352.95 L734.3 355.6 Q730.35 361.75 724.3 365.8 720.6 363.4 716.05 362.65 L710.9 366.95 710.2 366.5 710.2 366.0 708.95 364.8 707.3 364.8 707.05 364.3 708.65 364.15 710.9 364.9 Q713.7 363.7 715.2 361.15 L717.6 361.45 Q721.15 362.0 724.0 364.3 L724.6 364.25 727.65 361.4 726.1 360.8 Q724.65 360.0 723.55 358.8 721.55 356.7 718.55 356.1 709.45 354.65 701.75 359.95 L703.9 362.35 703.8 362.9 Q702.75 364.2 701.4 363.3 699.75 362.2 699.15 360.25 688.6 356.15 679.7 363.35 680.05 362.65 680.65 362.2 689.2 355.3 699.8 358.8 706.05 355.9 713.3 354.8 722.3 353.8 728.2 360.8 L734.8 352.55 729.75 348.95 Q724.15 351.05 718.0 351.05 708.1 351.05 700.55 345.0 696.65 341.9 696.55 337.1 696.4 332.1 700.85 329.7 L699.65 329.45 699.4 326.75 714.5 322.35 712.75 316.85 Q716.5 314.75 720.7 314.65 728.4 315.35 734.9 319.0 736.95 315.15 737.7 311.0 738.6 306.2 737.55 302.7 L734.15 304.45 Q727.2 308.35 721.15 303.15 720.9 299.6 720.9 296.05 720.95 291.35 723.9 287.8 L715.6 283.9 Q718.05 275.9 724.75 270.8 733.15 264.5 742.85 267.55 748.5 269.45 753.2 265.85 750.1 254.1 756.45 243.75 750.95 231.85 755.2 219.1 752.35 211.55 754.1 203.75 755.05 199.35 759.1 197.15 763.15 195.0 766.6 198.0 L766.6 202.3 M761.0 270.3 L762.15 269.1 Q763.4 271.1 761.45 273.35 L760.45 274.8 Q758.65 278.65 756.55 281.9 754.6 284.85 752.15 287.4 749.2 290.55 745.5 288.5 L745.55 287.35 Q748.8 288.3 751.35 286.3 L752.05 285.45 Q756.3 277.75 761.0 270.3 M679.35 364.3 Q681.75 368.4 686.75 368.85 L686.65 369.5 682.1 370.5 681.55 372.1 Q681.5 380.1 686.05 386.4 689.75 391.45 695.75 393.6 L710.7 397.25 709.8 397.8 Q710.0 404.7 716.15 407.75 720.85 410.15 725.5 407.55 729.4 405.45 732.5 402.55 L732.55 402.5 732.6 402.6 Q734.65 407.55 738.85 411.05 741.0 412.95 743.65 414.0 753.65 417.65 763.3 413.4 762.5 415.05 760.95 416.2 L758.75 417.45 758.65 417.9 759.7 418.9 Q762.8 421.35 766.6 422.35 L766.6 423.7 Q762.25 423.85 759.2 420.5 L758.15 419.35 Q756.65 424.55 753.1 428.65 747.45 434.95 740.2 439.6 L742.2 443.3 Q744.2 446.55 748.15 447.4 L755.9 447.95 Q755.7 448.85 754.9 449.2 749.15 451.95 743.85 448.25 741.75 446.8 740.55 444.7 L737.4 440.0 Q736.95 435.2 735.05 430.7 733.95 428.1 731.35 426.6 730.1 425.9 728.8 425.7 714.8 423.4 700.5 425.05 698.5 425.1 697.2 423.5 692.0 416.85 695.85 409.35 697.45 407.2 700.15 407.5 L705.7 407.2 705.95 408.45 705.35 408.8 704.75 408.4 700.05 408.25 Q695.6 411.95 696.7 417.65 697.25 420.5 699.55 421.9 700.35 422.35 701.2 422.2 714.3 420.85 727.25 422.4 L731.6 417.75 735.65 411.05 731.6 405.35 Q725.75 411.85 717.3 409.7 714.4 409.1 712.1 406.95 709.9 404.9 708.35 402.15 695.45 398.95 685.45 407.1 684.1 408.2 683.55 409.9 681.2 417.2 684.4 424.4 L683.6 424.45 680.35 419.55 Q671.4 424.9 672.3 435.25 672.85 441.75 677.6 446.15 L677.8 447.3 677.1 446.95 Q674.15 445.35 672.45 442.45 L670.4 438.8 Q663.2 445.75 654.35 450.65 649.55 453.3 646.2 457.8 642.75 462.35 640.6 467.6 L639.75 467.15 639.8 464.1 639.75 465.0 Q630.35 473.75 619.3 480.0 L616.05 480.0 Q625.6 474.35 634.15 467.3 637.75 464.4 640.4 460.55 643.5 456.1 647.9 452.95 L670.1 437.5 Q670.0 426.8 677.7 419.6 L679.95 417.55 Q679.4 406.25 689.9 401.55 698.6 397.6 707.9 399.75 L708.0 397.85 Q697.0 398.2 688.8 391.1 678.9 382.45 680.55 369.4 L681.1 368.85 678.7 367.15 679.35 364.3 M689.45 375.25 L689.9 372.8 Q691.1 376.0 690.75 379.3 693.5 382.1 697.3 380.95 699.55 380.35 701.75 381.0 L700.6 384.05 701.3 386.05 707.05 387.55 708.35 387.6 Q708.9 392.1 713.45 392.2 L717.45 392.5 718.25 396.3 Q725.0 399.35 729.8 393.75 L730.2 393.2 730.85 393.8 730.8 394.05 Q730.75 395.0 730.1 395.7 727.0 399.05 722.45 399.25 L721.3 399.15 Q717.7 398.7 716.7 395.25 L716.45 394.3 Q711.6 396.35 708.3 392.2 706.85 394.55 704.1 394.3 L703.25 394.15 Q701.9 392.25 702.35 390.0 L697.95 391.1 696.55 390.9 696.4 389.7 698.4 386.4 692.15 386.1 692.35 382.1 689.45 380.05 689.45 375.5 689.45 375.25 M714.75 385.8 L710.55 384.95 710.15 384.25 710.45 383.85 Q717.35 385.05 723.6 381.8 725.65 380.7 727.15 379.15 732.9 373.0 739.35 367.25 L739.95 366.75 740.0 366.75 Q740.8 368.65 738.4 370.45 737.35 371.2 736.55 372.35 730.75 380.75 721.5 384.55 718.1 385.95 714.75 385.8 M693.35 382.1 L693.8 382.25 693.65 384.65 699.1 384.65 699.5 382.35 693.35 382.1 M707.05 389.1 L703.8 388.65 704.35 388.8 703.9 392.05 Q703.85 392.6 704.45 392.75 L707.6 391.2 707.05 389.1 M698.8 388.9 L698.7 389.05 698.85 389.0 Q700.45 388.3 702.25 388.15 L699.9 386.85 698.8 388.9 M740.35 310.35 Q739.7 318.2 733.6 323.1 736.95 321.4 740.8 321.15 739.15 325.55 734.9 327.1 744.0 326.95 749.8 319.9 L750.35 320.2 745.75 330.6 Q751.75 327.75 753.75 321.35 755.65 315.25 751.0 310.75 L749.8 311.15 Q744.85 313.0 740.4 310.35 L739.95 310.05 740.35 310.35 M760.65 316.5 L761.35 316.8 763.2 334.75 764.15 335.85 764.85 336.95 Q765.7 338.25 765.35 339.6 761.15 335.6 760.15 329.55 759.15 323.15 759.75 317.0 L760.65 316.5 M743.3 388.8 Q741.2 379.7 746.7 372.05 748.55 369.45 751.25 367.6 L751.55 368.3 Q743.15 376.5 745.55 387.9 L745.55 387.95 Q746.85 392.65 750.0 396.5 749.85 397.05 749.25 397.1 744.7 393.95 743.3 388.8 M766.15 406.4 L766.2 406.3 766.15 406.35 Q761.9 407.9 757.7 406.2 750.85 408.25 746.25 404.75 L744.05 402.65 743.35 401.75 Q742.25 400.25 742.9 399.4 744.35 401.4 746.05 402.7 L748.0 403.85 Q751.75 405.7 755.7 404.55 L756.7 404.15 757.65 400.65 759.35 400.8 759.4 403.9 Q762.95 405.4 766.6 404.55 L766.6 408.8 Q766.05 407.95 766.15 406.4 M755.35 417.8 L752.8 417.8 750.95 422.9 755.35 417.8 M737.5 429.85 L739.0 433.75 Q746.5 427.05 750.6 417.6 743.3 416.1 737.15 412.1 L736.8 412.9 Q733.8 418.65 728.8 422.75 L731.3 423.9 Q733.9 425.25 735.9 427.5 L737.35 429.5 737.5 429.85 M746.8 419.55 L746.9 419.6 745.35 421.4 745.15 423.4 743.1 424.4 Q743.45 425.75 742.8 427.0 L742.05 428.4 739.95 428.5 737.9 430.5 737.6 429.85 737.9 429.05 739.75 427.35 741.45 427.4 Q742.65 426.05 742.2 424.25 L742.65 423.8 Q743.4 423.2 744.45 423.4 L744.8 420.9 745.2 420.65 745.8 420.65 746.8 419.55 M738.85 437.65 Q749.35 431.45 756.0 421.0 L753.15 423.65 Q751.65 425.05 749.65 425.3 746.45 432.85 738.75 435.9 L738.85 437.65 M44.6 272.15 Q38.55 268.4 36.7 261.55 35.6 257.55 31.9 255.6 32.35 253.15 32.3 251.0 32.05 243.55 26.4 239.0 29.0 231.25 27.7 223.1 27.45 221.55 26.8 220.25 25.45 217.6 22.15 217.8 L24.95 216.35 Q25.2 209.85 22.45 203.9 L21.8 203.85 19.05 206.1 18.85 206.75 18.2 216.0 17.75 215.15 14.65 217.3 Q13.0 218.6 12.4 220.7 L13.75 222.35 Q12.0 230.75 8.75 238.55 7.4 241.85 5.2 244.5 L-0.95 251.15 -0.95 248.7 Q5.65 242.8 8.35 234.35 9.55 230.65 11.0 227.05 L12.5 223.45 11.05 221.55 11.0 218.55 15.15 214.1 17.2 213.8 Q16.75 209.1 19.05 205.05 L20.7 202.35 23.55 202.3 Q27.8 209.0 26.4 216.85 29.75 218.5 30.3 222.5 30.9 226.9 30.25 231.25 29.75 234.5 28.45 237.55 35.9 244.5 33.65 254.45 L36.55 256.5 37.45 259.5 Q40.45 259.65 43.1 261.3 44.55 262.2 45.65 263.6 52.45 263.3 56.6 267.7 57.2 268.3 57.45 269.25 58.05 271.45 56.65 273.2 L55.45 274.55 Q54.7 278.95 51.2 281.55 L49.85 282.35 53.55 288.6 Q60.0 286.0 66.85 286.7 69.35 287.05 71.7 288.3 76.0 290.55 77.65 295.15 80.4 302.85 74.15 308.65 71.6 311.1 68.5 312.75 65.15 314.35 61.5 314.6 67.95 321.35 69.75 330.4 L69.5 330.8 61.55 329.55 68.15 335.85 68.15 335.05 71.5 331.75 75.3 332.25 Q78.7 328.55 83.0 330.6 83.9 331.05 84.65 331.8 L85.4 332.5 91.55 328.25 93.05 329.85 93.45 335.3 94.8 334.05 96.65 335.3 99.0 342.35 95.95 348.3 96.65 349.3 Q95.85 356.3 91.35 361.25 L90.2 362.2 91.6 365.15 Q91.3 366.45 90.25 367.1 88.8 368.05 87.05 367.5 L85.05 367.2 83.75 372.05 82.5 372.8 81.5 376.5 79.55 375.05 77.75 378.4 74.85 376.25 73.3 378.75 72.7 378.85 70.1 374.85 69.0 379.9 68.3 380.2 66.65 378.55 63.85 382.65 62.8 382.7 61.3 380.9 Q52.95 385.8 44.05 382.05 L39.3 383.7 39.1 381.65 35.85 382.0 36.75 377.0 32.7 375.4 Q32.45 381.65 33.6 387.75 40.55 384.65 47.5 387.1 L51.15 389.05 Q60.85 385.1 71.1 386.85 72.4 387.05 73.6 387.8 76.95 389.65 78.95 393.15 83.45 401.2 82.5 410.45 81.45 420.55 85.45 429.85 89.3 438.7 97.3 444.35 99.65 445.95 102.5 446.0 L108.2 445.85 130.3 444.2 134.6 444.35 Q143.75 446.15 150.4 452.55 164.3 465.95 172.8 483.25 L169.65 483.25 Q160.95 462.65 142.15 450.15 137.5 447.0 131.7 446.05 121.65 444.8 111.75 447.15 107.85 448.1 103.85 448.2 95.7 448.4 88.1 445.95 L78.15 442.75 Q72.2 440.75 65.95 440.8 L53.55 441.5 52.5 440.5 53.4 437.3 54.8 436.25 55.4 436.35 53.4 439.5 Q59.4 441.25 65.5 439.8 L71.0 439.15 Q78.0 439.2 84.25 442.1 89.6 444.6 95.25 446.0 88.05 441.45 85.0 433.4 81.45 423.9 80.45 413.95 80.05 409.9 80.0 405.75 79.9 397.95 75.4 391.95 73.45 389.4 70.5 388.8 63.9 387.2 57.1 389.35 L51.0 390.85 40.15 387.15 34.0 389.85 Q36.35 397.3 40.55 403.9 L42.9 406.45 Q45.65 409.3 49.0 411.6 L51.0 412.9 51.0 413.55 52.2 414.05 Q60.65 408.85 58.15 398.9 L56.2 399.6 59.35 397.85 Q61.35 404.4 58.15 410.25 54.65 416.6 47.35 417.45 39.05 417.1 31.15 414.3 19.75 410.3 8.95 415.65 11.65 411.35 16.7 410.4 L18.2 409.95 16.6 407.75 14.55 404.0 11.65 398.65 8.8 402.2 3.35 399.9 -0.95 401.15 -0.95 399.55 Q2.9 398.25 6.7 399.15 L8.0 399.7 11.0 397.05 Q9.3 392.3 8.6 387.4 L6.6 387.9 3.7 393.4 1.95 393.0 0.9 394.8 -0.95 394.35 -0.95 392.05 0.45 393.0 1.0 391.6 2.7 391.55 4.25 388.8 4.85 388.6 4.2 388.8 -0.95 388.65 -0.95 386.5 -0.85 386.5 Q11.15 387.0 19.15 378.0 23.2 373.35 29.0 372.95 32.65 372.9 35.7 374.95 42.75 379.85 51.0 381.75 56.35 382.85 59.65 378.8 L61.15 376.35 Q63.05 372.0 66.9 369.15 74.65 371.3 82.45 370.1 84.8 364.65 85.15 358.45 89.75 357.6 92.15 353.6 94.15 350.3 94.75 346.5 95.25 343.55 94.65 340.6 L92.2 335.25 91.95 334.75 92.2 330.8 91.15 330.35 90.1 330.7 Q87.55 332.3 85.55 334.6 L85.4 334.6 84.95 334.35 83.2 331.3 80.85 330.8 78.95 331.8 Q78.1 332.4 77.55 333.3 76.7 334.65 75.1 334.6 L73.5 333.45 72.4 333.5 69.9 335.75 69.9 336.85 73.95 338.8 Q75.5 343.65 80.6 344.1 L82.25 343.9 Q85.05 342.3 86.1 339.05 L87.6 337.45 Q86.45 342.9 82.2 345.95 L81.0 346.3 Q77.05 345.6 74.45 342.55 73.3 341.2 71.6 340.4 63.8 336.3 58.7 329.0 L58.65 327.65 58.9 327.3 67.75 328.3 61.05 316.8 59.85 314.8 56.9 315.15 56.8 315.7 56.3 319.75 52.55 318.65 Q52.15 320.6 50.6 321.9 47.65 324.25 43.7 324.4 L41.5 329.1 40.5 329.05 39.45 327.25 38.6 327.75 35.75 325.1 34.15 326.05 32.9 328.5 31.85 328.8 29.5 326.25 29.45 326.2 29.45 326.3 28.4 332.0 27.45 332.2 25.0 327.8 Q20.95 333.65 13.9 334.95 L12.45 336.75 11.05 336.55 8.45 341.45 7.45 341.8 6.0 340.1 Q5.1 338.75 4.45 337.25 3.35 338.25 1.95 338.65 L0.25 339.05 0.0 334.65 0.0 334.55 -0.15 334.65 -0.95 335.5 -0.95 333.5 -0.2 332.55 0.7 332.4 0.75 332.4 1.4 337.2 5.7 336.1 7.15 339.7 10.25 335.2 10.35 335.15 10.3 335.1 6.8 334.5 Q2.1 333.75 -0.6 330.05 L-0.95 329.8 -0.95 328.35 4.7 331.45 Q11.7 334.9 18.45 331.0 L20.85 329.05 Q25.2 324.5 28.45 318.95 L28.7 318.75 30.55 318.0 30.9 319.05 Q39.1 324.1 48.3 321.3 49.45 321.05 49.95 320.0 51.35 317.05 51.3 313.75 L52.15 313.0 Q63.65 314.45 73.1 307.9 74.7 306.7 75.7 305.2 79.2 299.8 75.9 294.6 L75.85 294.6 74.2 292.65 Q69.9 287.55 63.05 288.55 L63.0 288.55 60.55 289.1 55.1 289.75 58.85 291.8 62.0 293.05 Q57.1 295.45 52.0 293.65 L56.75 297.05 Q61.0 300.2 64.95 296.85 L66.15 294.95 66.4 294.85 66.75 295.25 66.9 296.85 65.1 298.95 64.4 299.0 Q61.15 301.65 57.2 299.9 L55.2 301.05 Q53.55 300.8 52.9 299.25 L46.3 299.5 45.9 296.5 41.2 295.75 Q43.25 291.9 43.85 287.5 L44.75 287.45 42.85 287.35 38.65 285.6 38.4 288.55 Q35.0 288.4 32.25 286.75 L32.05 290.1 31.65 290.5 29.95 289.9 Q28.25 289.3 27.25 287.65 L26.65 288.85 Q25.35 291.55 23.0 293.35 19.65 293.8 16.55 292.6 L15.2 290.75 12.85 292.7 11.75 292.55 9.7 290.6 9.45 290.85 7.55 291.0 5.45 287.35 2.85 289.85 Q2.1 290.65 0.85 290.9 L0.4 290.2 0.4 287.7 -0.95 288.75 -0.95 287.4 0.8 285.3 1.45 285.1 1.8 285.75 Q2.4 286.95 1.85 287.9 L1.85 288.0 1.9 288.0 Q4.1 286.85 6.25 285.75 L8.2 289.45 8.8 289.4 9.3 287.4 10.0 287.3 10.3 288.55 12.75 291.05 14.25 289.6 Q11.4 286.0 7.5 283.75 3.0 281.3 -0.95 284.2 L-0.95 282.1 4.05 280.1 Q8.6 281.2 12.0 284.45 15.35 287.7 18.15 291.2 L21.95 291.75 Q23.7 289.9 25.1 287.65 L27.2 284.15 Q32.05 279.1 38.9 280.55 45.4 281.85 50.95 278.6 L52.15 277.6 Q53.4 276.2 54.2 274.4 55.05 272.4 56.2 270.55 L55.75 268.75 Q55.4 267.4 54.4 266.35 L53.65 265.7 45.7 266.1 44.9 265.55 41.2 261.3 38.05 261.05 40.7 266.25 41.25 267.05 Q43.85 269.9 47.65 271.45 L44.6 272.15 M20.0 227.6 L22.2 226.2 18.4 232.85 18.8 234.05 Q19.6 236.8 17.75 238.9 L16.3 240.1 15.8 240.8 15.25 240.9 14.7 240.6 Q15.45 238.0 17.7 236.6 16.05 231.55 20.0 227.6 M18.85 247.95 L18.9 250.35 Q19.05 255.6 20.4 260.4 L21.15 262.7 Q23.1 267.9 27.75 271.25 L30.7 269.6 31.1 269.55 31.1 269.95 29.2 272.25 Q25.5 272.6 23.3 269.5 17.65 261.35 18.15 251.5 L18.85 247.95 M15.2 290.75 L14.85 290.35 15.2 290.75 M48.65 283.55 Q48.2 285.3 47.0 286.4 46.05 287.35 44.75 287.45 L43.75 294.25 44.65 294.45 Q46.85 295.35 47.7 297.5 L51.15 297.25 Q53.3 297.6 55.0 299.0 L55.35 298.55 49.75 292.7 55.15 292.05 Q50.6 288.85 48.95 283.55 L49.2 282.6 48.3 283.05 48.65 283.55 M10.65 255.25 L11.5 251.7 10.05 260.8 Q8.95 264.55 7.05 267.9 4.1 273.0 -0.95 270.65 L-0.95 269.5 1.65 270.05 Q5.55 268.35 7.35 264.4 9.3 260.0 10.65 255.25 M38.7 282.0 L31.9 281.5 28.0 286.25 30.55 288.2 30.65 285.25 31.4 284.5 36.75 286.95 38.65 282.3 39.2 282.15 38.7 282.0 M47.25 283.1 L41.8 282.95 39.4 284.35 45.25 285.6 47.25 283.1 M41.2 304.25 L44.25 302.55 38.15 309.8 Q31.35 308.55 29.05 301.8 28.4 299.9 28.5 298.0 31.05 303.45 35.7 307.55 36.3 308.15 37.25 308.0 L41.2 304.25 M55.45 315.15 L52.75 314.8 52.85 316.9 52.85 316.45 54.8 317.75 55.45 315.15 M40.9 326.85 L42.0 324.4 Q35.4 323.5 29.75 320.05 L26.05 326.0 27.4 329.85 28.25 324.5 29.7 323.55 30.25 323.8 Q30.8 325.15 31.5 326.2 L31.95 326.65 Q33.6 324.25 36.15 323.5 L37.0 323.85 37.25 325.2 38.65 325.95 39.55 325.15 40.45 325.55 40.9 326.85 M52.15 337.1 L52.95 336.7 58.1 342.25 Q64.8 349.55 74.55 351.55 70.0 352.0 65.6 350.75 55.15 347.55 52.15 337.1 M18.85 312.75 Q19.35 316.15 18.1 319.45 17.75 320.4 16.75 320.25 L16.4 319.85 17.4 314.15 Q17.7 308.45 17.0 302.85 L17.35 303.85 Q18.8 308.25 18.85 312.75 M8.85 311.0 Q8.25 315.2 4.65 317.4 1.25 319.4 -0.95 315.8 L3.45 316.2 Q5.55 314.65 6.75 312.15 10.25 304.9 6.65 297.5 L7.3 298.4 Q9.15 301.1 9.4 304.15 L8.85 311.0 M30.35 345.4 Q28.4 342.15 28.8 338.6 L29.7 338.2 30.2 338.3 30.4 338.9 Q32.75 347.05 38.2 353.3 L43.35 354.75 48.8 355.55 Q41.3 357.95 35.55 352.75 32.1 349.7 30.35 345.4 M13.4 348.3 L13.5 348.9 Q13.5 358.0 7.35 364.05 6.55 364.9 5.4 365.0 1.05 365.3 -0.95 361.5 L-0.95 360.9 -0.5 360.75 Q-0.25 360.9 -0.05 361.0 4.2 367.2 8.95 360.3 L13.05 348.0 13.4 348.3 M24.5 385.25 L19.35 387.1 19.8 389.1 20.35 389.5 Q22.0 391.15 20.9 393.6 L21.4 394.1 Q22.8 395.8 22.35 397.9 24.3 401.5 25.9 405.25 26.5 406.65 27.55 407.95 L29.45 410.4 Q24.1 407.85 23.15 401.95 22.8 399.9 21.4 398.5 L21.3 395.5 19.55 394.45 19.8 391.3 19.15 390.7 Q18.0 389.6 17.85 388.25 L16.9 392.0 Q19.5 399.6 24.1 406.35 25.5 408.45 27.4 410.2 30.45 412.85 34.25 414.15 37.25 415.1 40.35 415.25 L50.6 414.8 Q47.85 413.75 45.65 411.85 32.9 400.75 30.8 384.0 L24.5 385.25 M12.45 392.2 L11.95 392.85 Q15.35 401.9 20.6 410.0 L22.2 410.25 12.45 392.2 M40.25 379.25 L38.3 377.85 37.15 380.85 40.25 379.25 M40.65 382.1 L41.1 382.05 42.45 380.95 41.4 380.15 40.65 382.1 M78.8 373.4 Q72.5 371.95 65.95 371.3 L64.4 373.0 Q64.75 376.8 62.3 379.6 L63.3 380.8 Q65.4 378.9 65.85 376.05 L66.7 375.95 67.9 377.45 69.2 373.25 69.9 373.4 Q72.05 374.1 73.3 376.0 L73.4 375.4 74.75 374.5 76.9 376.65 78.8 373.4 M95.55 335.85 L94.45 336.65 Q96.6 341.6 95.9 346.9 L98.3 342.25 96.9 340.55 96.9 339.05 95.95 338.15 95.55 335.85 M95.95 350.25 L95.35 349.3 Q93.35 357.55 85.5 360.45 L85.3 365.5 87.55 366.5 90.55 365.25 88.8 361.95 88.85 361.1 90.5 360.35 Q94.65 357.8 95.45 352.95 L94.9 351.6 95.95 350.25 M81.2 374.75 L81.85 373.05 79.65 373.45 81.2 374.75" fill="#000000" fill-rule="evenodd" stroke="none"/>
      <path d="M12.45 392.2 L22.2 410.25 20.6 410.0 Q15.35 401.9 11.95 392.85 L12.45 392.2 M40.35 415.25 Q37.25 415.1 34.25 414.15 30.45 412.85 27.4 410.2 25.5 408.45 24.1 406.35 19.5 399.6 16.9 392.0 L17.85 388.25 Q18.0 389.6 19.15 390.7 L19.8 391.3 19.55 394.45 21.3 395.5 21.4 398.5 Q22.8 399.9 23.15 401.95 24.1 407.85 29.45 410.4 L27.55 407.95 Q26.5 406.65 25.9 405.25 24.3 401.5 22.35 397.9 22.8 395.8 21.4 394.1 L20.9 393.6 Q22.0 391.15 20.35 389.5 L19.8 389.1 19.35 387.1 24.5 385.25 Q23.55 392.65 27.05 399.1 32.05 408.45 40.35 415.25" fill="#6d5b41" fill-rule="evenodd" stroke="none"/>
      <path d="M24.5 385.25 L30.8 384.0 Q32.9 400.75 45.65 411.85 47.85 413.75 50.6 414.8 L40.35 415.25 Q32.05 408.45 27.05 399.1 23.55 392.65 24.5 385.25" fill="#b3a491" fill-rule="evenodd" stroke="none"/>
      <path d="M755.35 417.8 L750.95 422.9 752.8 417.8 755.35 417.8 M736.8 412.9 L737.15 412.1 Q743.3 416.1 750.6 417.6 746.5 427.05 739.0 433.75 L737.5 429.85 737.6 429.85 737.9 430.5 739.95 428.5 742.05 428.4 742.8 427.0 Q743.45 425.75 743.1 424.4 L745.15 423.4 745.35 421.4 746.9 419.6 746.95 419.5 746.8 419.55 745.8 420.65 745.2 420.65 744.8 420.9 744.45 423.4 Q743.4 423.2 742.65 423.8 L742.2 424.25 Q742.65 426.05 741.45 427.4 L739.75 427.35 737.9 429.05 737.35 429.5 735.9 427.5 Q739.75 424.2 741.4 419.4 L740.15 417.9 Q737.8 415.85 736.8 412.9 M738.85 437.65 L738.75 435.9 Q746.45 432.85 749.65 425.3 751.65 425.05 753.15 423.65 L756.0 421.0 Q749.35 431.45 738.85 437.65" fill="#9a867c" fill-rule="evenodd" stroke="none"/>
      <path d="M735.9 427.5 Q733.9 425.25 731.3 423.9 L728.8 422.75 Q733.8 418.65 736.8 412.9 737.8 415.85 740.15 417.9 L741.4 419.4 Q739.75 424.2 735.9 427.5" fill="#d7cdc8" fill-rule="evenodd" stroke="none"/>
      <path d="M766.6 364.0 L765.05 365.6 764.65 362.65 764.25 362.3 763.65 362.25 760.8 365.65 761.9 360.35 761.6 359.8 757.15 359.75 757.1 355.6 750.5 358.1 751.05 353.8 Q749.95 354.0 749.05 354.95 745.3 358.85 739.95 359.8 741.6 356.95 740.65 353.75 746.3 353.7 749.5 349.05 753.45 353.8 759.6 352.45 L759.65 353.95 760.35 354.75 Q762.95 357.7 766.6 356.65 L766.6 364.0 M693.35 382.1 L699.5 382.35 699.1 384.65 693.65 384.65 693.8 382.25 693.35 382.1 M707.05 389.1 L707.6 391.2 704.45 392.75 Q703.85 392.6 703.9 392.05 L704.35 388.8 703.8 388.65 707.05 389.1 M698.8 388.9 L699.9 386.85 702.25 388.15 Q700.45 388.3 698.85 389.0 L698.8 388.9 M740.4 310.35 Q744.85 313.0 749.8 311.15 L751.0 310.75 Q755.65 315.25 753.75 321.35 751.75 327.75 745.75 330.6 L750.35 320.2 749.8 319.9 Q744.0 326.95 734.9 327.1 739.15 325.55 740.8 321.15 736.95 321.4 733.6 323.1 739.7 318.2 740.35 310.35 L740.4 310.35" fill="#5d8357" fill-rule="evenodd" stroke="none"/>
    </g>
  </defs>
</svg>
